<svg
    xmlns="http://www.w3.org/2000/svg"
    viewBox="0 0 324 80"
    id="vector">
    <path
        id="path_1"
        d="M 55 75 L 55 75 L 8.6 75 Q 6.7 75 5.85 74.15 Q 5 73.3 5 71.4 L 5 71.4 L 5 6.6 Q 5 4.7 5.85 3.85 Q 6.7 3 8.6 3 L 8.6 3 L 55 3 Q 56.9 3 57.75 3.85 Q 58.6 4.7 58.6 6.6 L 58.6 6.6 L 58.6 18.3 Q 58.6 20.2 57.75 21.05 Q 56.9 21.9 55 21.9 L 55 21.9 L 27.4 21.9 L 27.4 29.6 L 46.9 29.6 Q 48.8 29.6 49.65 30.45 Q 50.5 31.3 50.5 33.2 L 50.5 33.2 L 50.5 43.9 Q 50.5 45.8 49.65 46.65 Q 48.8 47.5 46.9 47.5 L 46.9 47.5 L 27.4 47.5 L 27.4 56.1 L 55 56.1 Q 56.9 56.1 57.75 56.95 Q 58.6 57.8 58.6 59.7 L 58.6 59.7 L 58.6 71.4 Q 58.6 73.3 57.75 74.15 Q 56.9 75 55 75 Z M 124.9 75 L 124.9 75 L 74 75 Q 72.1 75 71.25 74.15 Q 70.4 73.3 70.4 71.4 L 70.4 71.4 L 70.4 6.6 Q 70.4 4.7 71.25 3.85 Q 72.1 3 74 3 L 74 3 L 89.5 3 Q 91.4 3 92.25 3.85 Q 93.1 4.7 93.1 6.6 L 93.1 6.6 L 93.1 56.1 L 106.8 56.1 L 106.8 39.9 Q 106.8 38 107.65 37.15 Q 108.5 36.3 110.4 36.3 L 110.4 36.3 L 124.9 36.3 Q 126.8 36.3 127.65 37.15 Q 128.5 38 128.5 39.9 L 128.5 39.9 L 128.5 71.4 Q 128.5 73.3 127.65 74.15 Q 126.8 75 124.9 75 Z M 184.5 75 L 141.9 75 Q 140 75 139.15 74.15 Q 138.3 73.3 138.3 71.4 L 138.3 71.4 L 138.3 59.5 Q 138.3 57.6 139.15 56.75 Q 140 55.9 141.9 55.9 L 141.9 55.9 L 151.8 55.9 L 151.8 22.3 L 141.9 22.3 Q 140 22.3 139.15 21.45 Q 138.3 20.6 138.3 18.7 L 138.3 18.7 L 138.3 6.6 Q 138.3 4.7 139.15 3.85 Q 140 3 141.9 3 L 141.9 3 L 184.5 3 Q 186.4 3 187.25 3.85 Q 188.1 4.7 188.1 6.6 L 188.1 6.6 L 188.1 18.7 Q 188.1 20.6 187.25 21.45 Q 186.4 22.3 184.5 22.3 L 184.5 22.3 L 174.8 22.3 L 174.8 55.9 L 184.5 55.9 Q 186.4 55.9 187.25 56.75 Q 188.1 57.6 188.1 59.5 L 188.1 59.5 L 188.1 71.4 Q 188.1 73.3 187.25 74.15 Q 186.4 75 184.5 75 L 184.5 75 Z M 234.4 75 L 234.4 75 L 218.2 75 Q 216.3 75 215.45 74.15 Q 214.6 73.3 214.6 71.4 L 214.6 71.4 L 214.6 22.3 L 199.9 22.3 Q 198 22.3 197.15 21.45 Q 196.3 20.6 196.3 18.7 L 196.3 18.7 L 196.3 6.6 Q 196.3 4.7 197.15 3.85 Q 198 3 199.9 3 L 199.9 3 L 252.7 3 Q 254.6 3 255.45 3.85 Q 256.3 4.7 256.3 6.6 L 256.3 6.6 L 256.3 18.7 Q 256.3 20.6 255.45 21.45 Q 254.6 22.3 252.7 22.3 L 252.7 22.3 L 238 22.3 L 238 71.4 Q 238 73.3 237.15 74.15 Q 236.3 75 234.4 75 Z M 316 75 L 316 75 L 269.6 75 Q 267.7 75 266.85 74.15 Q 266 73.3 266 71.4 L 266 71.4 L 266 6.6 Q 266 4.7 266.85 3.85 Q 267.7 3 269.6 3 L 269.6 3 L 316 3 Q 317.9 3 318.75 3.85 Q 319.6 4.7 319.6 6.6 L 319.6 6.6 L 319.6 18.3 Q 319.6 20.2 318.75 21.05 Q 317.9 21.9 316 21.9 L 316 21.9 L 288.4 21.9 L 288.4 29.6 L 307.9 29.6 Q 309.8 29.6 310.65 30.45 Q 311.5 31.3 311.5 33.2 L 311.5 33.2 L 311.5 43.9 Q 311.5 45.8 310.65 46.65 Q 309.8 47.5 307.9 47.5 L 307.9 47.5 L 288.4 47.5 L 288.4 56.1 L 316 56.1 Q 317.9 56.1 318.75 56.95 Q 319.6 57.8 319.6 59.7 L 319.6 59.7 L 319.6 71.4 Q 319.6 73.3 318.75 74.15 Q 317.9 75 316 75 Z"
        fill="#3A3A3A"/>
</svg>
