<svg
    xmlns="http://www.w3.org/2000/svg"
    viewBox="0 0 100 100"
    id="vector">
    <path
        id="path"
        d="M 84.979 79.851 C 84.979 85.739 80.19 90.529 74.301 90.529 L 31.456 90.529 L 27.429 86.596 L 27.893 86.596 L 69.026 86.596 C 75.653 86.596 81.045 81.203 81.045 74.575 L 81.045 24.954 L 82.392 24.954 C 83.818 24.954 84.979 26.115 84.979 27.543 L 84.979 79.851 Z M 18.337 78.398 L 65.79 78.398 C 69.682 78.398 72.848 75.231 72.848 71.339 L 72.848 17.667 L 73.987 17.667 C 75.414 17.667 76.574 18.829 76.574 20.255 L 76.574 74.575 C 76.574 78.738 73.187 82.125 69.026 82.125 L 23.053 82.125 L 18.337 78.398 Z M 15.471 9.471 L 65.79 9.471 C 67.216 9.471 68.377 10.631 68.377 12.059 L 68.377 71.339 C 68.377 72.767 67.216 73.927 65.79 73.927 L 15.471 73.927 L 15.471 9.471 Z M 82.392 20.483 L 81.045 20.483 L 81.045 20.255 C 81.045 16.363 77.878 13.196 73.987 13.196 L 72.848 13.196 L 72.848 12.059 C 72.848 8.167 69.682 5 65.79 5 L 11 5 L 11 78.398 L 29.904 95 L 74.301 95 C 82.654 95 89.45 88.204 89.45 79.851 L 89.45 27.543 C 89.45 23.65 86.284 20.483 82.392 20.483 L 82.392 20.483 Z"
        fill="#5d5fef"/>
</svg>
