<svg
    xmlns="http://www.w3.org/2000/svg"
    viewBox="0 0 274 92"
    id="vector">
    <path
        id="path_2"
        d="M 45 88 L 45 88 L 29.6 88 Q 27.7 88 26.85 87.15 Q 26 86.3 26 84.4 L 26 84.4 L 26 78.9 Q 14.4 77.2 10.35 71.95 Q 6.3 66.7 6.3 59.2 L 6.3 59.2 L 6.3 26 Q 6.3 21.4 7.65 17.65 Q 9 13.9 12.45 11.2 Q 15.9 8.5 22 7 Q 28.1 5.5 37.4 5.5 L 37.4 5.5 Q 46.7 5.5 52.75 7 Q 58.8 8.5 62.25 11.2 Q 65.7 13.9 67.05 17.65 Q 68.4 21.4 68.4 26 L 68.4 26 L 68.4 59.2 Q 68.4 63 67.5 66.25 Q 66.6 69.5 64.4 72 Q 62.2 74.5 58.35 76.3 Q 54.5 78.1 48.6 78.9 L 48.6 78.9 L 48.6 84.4 Q 48.6 86.3 47.75 87.15 Q 46.9 88 45 88 Z M 29 29.7 L 29 57 Q 29 59 30.5 60.35 Q 32 61.7 37.4 61.7 L 37.4 61.7 Q 42.8 61.7 44.3 60.35 Q 45.8 59 45.8 57 L 45.8 57 L 45.8 29.7 Q 45.8 27.8 44.3 26.45 Q 42.8 25.1 37.4 25.1 L 37.4 25.1 Q 32 25.1 30.5 26.45 Q 29 27.8 29 29.7 L 29 29.7 Z M 142.4 10.6 L 142.4 60.1 Q 142.4 64.7 141.05 68.45 Q 139.7 72.2 136.25 74.85 Q 132.8 77.5 126.8 79 Q 120.8 80.5 111.5 80.5 L 111.5 80.5 Q 102.2 80.5 96.2 79 Q 90.2 77.5 86.75 74.85 Q 83.3 72.2 81.95 68.45 Q 80.6 64.7 80.6 60.1 L 80.6 60.1 L 80.6 10.6 Q 80.6 8.7 81.45 7.85 Q 82.3 7 84.2 7 L 84.2 7 L 99.9 7 Q 101.8 7 102.65 7.85 Q 103.5 8.7 103.5 10.6 L 103.5 10.6 L 103.5 56.2 Q 103.5 58.2 105 59.55 Q 106.5 60.9 111.7 60.9 L 111.7 60.9 Q 117 60.9 118.5 59.55 Q 120 58.2 120 56.2 L 120 56.2 L 120 10.6 Q 120 8.7 120.85 7.85 Q 121.7 7 123.6 7 L 123.6 7 L 138.8 7 Q 140.7 7 141.55 7.85 Q 142.4 8.7 142.4 10.6 L 142.4 10.6 Z M 200.3 79 L 157.7 79 Q 155.8 79 154.95 78.15 Q 154.1 77.3 154.1 75.4 L 154.1 75.4 L 154.1 63.5 Q 154.1 61.6 154.95 60.75 Q 155.8 59.9 157.7 59.9 L 157.7 59.9 L 167.6 59.9 L 167.6 26.3 L 157.7 26.3 Q 155.8 26.3 154.95 25.45 Q 154.1 24.6 154.1 22.7 L 154.1 22.7 L 154.1 10.6 Q 154.1 8.7 154.95 7.85 Q 155.8 7 157.7 7 L 157.7 7 L 200.3 7 Q 202.2 7 203.05 7.85 Q 203.9 8.7 203.9 10.6 L 203.9 10.6 L 203.9 22.7 Q 203.9 24.6 203.05 25.45 Q 202.2 26.3 200.3 26.3 L 200.3 26.3 L 190.6 26.3 L 190.6 59.9 L 200.3 59.9 Q 202.2 59.9 203.05 60.75 Q 203.9 61.6 203.9 63.5 L 203.9 63.5 L 203.9 75.4 Q 203.9 77.3 203.05 78.15 Q 202.2 79 200.3 79 L 200.3 79 Z M 267.1 79 L 267.1 79 L 217.5 79 Q 215.6 79 214.75 78.15 Q 213.9 77.3 213.9 75.4 L 213.9 75.4 L 213.9 62 Q 213.9 60.1 214.5 58.65 Q 215.1 57.2 216.4 55.8 L 216.4 55.8 L 240.7 26.3 L 219.3 26.3 Q 217.4 26.3 216.55 25.45 Q 215.7 24.6 215.7 22.7 L 215.7 22.7 L 215.7 10.6 Q 215.7 8.7 216.55 7.85 Q 217.4 7 219.3 7 L 219.3 7 L 265.3 7 Q 267.2 7 268.05 7.85 Q 268.9 8.7 268.9 10.6 L 268.9 10.6 L 268.9 25.5 Q 268.9 27.5 268.3 28.95 Q 267.7 30.4 266.4 31.8 L 266.4 31.8 L 243.2 59.9 L 267.1 59.9 Q 269 59.9 269.85 60.75 Q 270.7 61.6 270.7 63.5 L 270.7 63.5 L 270.7 75.4 Q 270.7 77.3 269.85 78.15 Q 269 79 267.1 79 Z"
        fill="#3A3A3A"/>
</svg>
